# xmcd
#
# Track frame offsets: 
#        200
#        21197
#        36877
#        50672
#        68082
#        79332
#        99510
#        116827
#        131607
#        153197
#        171020
#
# Disc length: 2440 seconds
#
# Revision: 2
# Processed by: cddbd v1.5.2PL0 Copyright (c) Steve Scherf et al.
# Submitted via: ExactAudioCopy v0.99pb5
#
DISCID=8e09860b
DTITLE=New Swing Sextet - A Taste Of Spanish Harlem
DYEAR=1999
DGENRE=Salsa
TTITLE0=Yo te quiero cielo
TTITLE1=A taste of Spanish Harlem
TTITLE2=Soul Walk
TTITLE3=Arepas de arroz
TTITLE4=You better watch it now
TTITLE5=No te vayas
TTITLE6=El bongo
TTITLE7=Goin' out of my head
TTITLE8=The monster
TTITLE9=Love's nobody's friend
TTITLE10=Belinda
EXTD=YEAR: 1999
EXTT0=
EXTT1=
EXTT2=
EXTT3=
EXTT4=
EXTT5=
EXTT6=
EXTT7=
EXTT8=
EXTT9=
EXTT10=
PLAYORDER=
